<?xml version="1.0" encoding="UTF-8"?>
<!DOCTYPE svg PUBLIC "-//W3C//DTD SVG 1.1//EN" "http://www.w3.org/Graphics/SVG/1.1/DTD/svg11.dtd">
<!-- Creator: CorelDRAW (Evaluation Version) -->
<svg xmlns="http://www.w3.org/2000/svg" xml:space="preserve" width="32.3426mm" height="32.766mm" version="1.1" style="shape-rendering:geometricPrecision; text-rendering:geometricPrecision; image-rendering:optimizeQuality; fill-rule:evenodd; clip-rule:evenodd"
viewBox="0 0 3234.26 3276.6"
 xmlns:xlink="http://www.w3.org/1999/xlink"
 xmlns:xodm="http://www.corel.com/coreldraw/odm/2003">
 <defs>
  <style type="text/css">
   <![CDATA[
    .fil0 {fill:#512C28}
    .fil9 {fill:#5A3531}
    .fil10 {fill:#886963}
    .fil13 {fill:#8E581D}
    .fil12 {fill:#9B621B}
    .fil7 {fill:#9C827D}
    .fil6 {fill:#A8908B}
    .fil5 {fill:#B39E9A}
    .fil11 {fill:#BFADAA}
    .fil8 {fill:#D7CCCA}
    .fil4 {fill:#F1EDED}
    .fil3 {fill:#F4A102}
    .fil1 {fill:#F6A300}
    .fil2 {fill:white}
   ]]>
  </style>
   <clipPath id="id0">
    <rect x="-8.47" y="88.58" width="3234.26" height="3056.79"/>
   </clipPath>
 </defs>
 <g id="Layer_x0020_1">
  <metadata id="CorelCorpID_0Corel-Layer"/>
  <g style="clip-path:url(#id0)">
   <image x="-8.47" y="88.58" width="3234.26" height="3056.79" xlink:href="honey-icon_Images\honey-icon_ImgID1.png"/>
  </g>
  <g id="_1704516764624">
   <path class="fil0" d="M2406.58 2933.51l-18.1 9.52c-167.92,10.48 -327.1,101.89 -686.69,93.16 -80.49,-1.95 -640.37,1.76 -707.3,-87.1 323.54,47.51 328.78,70.51 698.84,63.39 120.19,-2.31 240.25,-11.11 356.8,-25.56 105.15,-13.03 237.6,-46.57 328.89,-52.1l15.92 -10.45 109.52 -24.02c-18.96,31.58 -51.24,29.77 -97.88,33.16zm-972.77 -287.19l328.78 5.25 6.34 285.55 -288.36 6.89 -46.76 -297.69zm364.02 5.08l316.25 -18.71 -19.49 245.96c-0.6,2.88 -2.56,10.92 -3.38,13.54 -7.67,24.55 -2.61,9.85 -8.42,19.54l-272.22 26.16 -12.74 -286.49zm-367.2 255.3l12.39 37.33c-17.35,0.17 -21.53,1.61 -38.05,-1.37 -22.56,-4.08 -15.36,-3.97 -25.67,-9.43l-183.92 -11.23c-27.3,-54.48 -86.64,-233.39 -96.46,-300.91l299.45 26.52 32.26 259.09zm-541.8 -319.17l169.26 31.5c13.34,22.64 76.02,254.47 83.52,291.32 -77.55,0.1 -56.28,-11.23 -91.77,-52.91 -92.03,-108.12 -120.99,-170.74 -193.09,-262.45 -15.5,-8.75 -5.63,14.89 -15.95,-19.14 30.55,2.52 26.28,-1.63 48.03,11.68zm1625.65 -34.42l24.86 -11.27 -8.94 17.53c-7.37,89.37 -43.56,171.7 -49.68,273.43l-335.66 67.12c-10.07,-88.85 8.25,-185.66 10.45,-274.55 45,-14.88 129.61,-21.11 180.43,-31.06 55.61,-10.89 127.43,-35.28 178.54,-41.2zm-1822.96 -25.16c62.07,14.85 92.81,20.02 115.91,55.52 23.52,36.13 39.51,67.42 63.12,106.19 42.46,69.73 95.6,145.37 151.25,190.56 -103.22,-2.47 -139.03,-80.61 -187.81,-145.44 -42.93,-57.05 -113.85,-128.33 -142.47,-206.83zm1828.6 287.92l52.13 -271.69c12.83,-7.44 119.11,-38.38 137.07,-42.71 -15.27,54.53 -36.38,131.33 -56.32,189.39 -24.21,70.46 -53.81,114.6 -132.88,125.01zm-1919.4 -457.27c426.31,127.37 617.8,159.77 1084.14,160.19 267.5,0.24 572.86,-32 828.51,-102.85 70.53,-19.55 180.94,-68.3 239.82,-78.42 -11.29,93.26 -103.1,103.83 -193.48,133.42 -431.12,141.13 -1040.57,137.3 -1485.23,74.66 -94.88,-13.37 -188.32,-31.23 -279.18,-51.7 -146.48,-33.01 -164.19,-22.12 -194.58,-135.3zm1002.08 -52.61l140.15 4.78 2.86 51.6 1.76 90.21c-75.36,0 -278.73,6.37 -337.8,-15.39l-10.13 -144.21 203.16 13.01zm452.07 -7.71c3.71,-1.98 7.3,-8.37 27.57,-10.85 28.41,-3.47 7.91,-2.73 31.78,5.16 3.2,28.55 5.61,40.37 -7.45,61.56 1.07,50.18 11.58,71.45 -32.45,78.74l-290.36 19.75 -7.31 -137.33 278.22 -17.03zm95.89 44.27c-10.36,-21.51 -9.52,-23.11 -8.5,-54.6l31.06 -7.36c123.32,-0.76 292.56,-58.2 389.2,-97.26 14.24,46.71 6.32,83.92 6.32,132.23 -14.14,24.15 -11.81,17.56 -43.96,27.56 -144.24,44.87 -221.59,55.8 -373.53,79.88l-0.59 -80.45zm-1117.66 -96.85l327.45 40.71 16.53 158.44 -314.15 -41.13c-16.61,-35.65 -27.92,-115.17 -29.83,-158.02zm-321.3 -920.24c59.74,4.84 148.55,33.2 214.6,46.26 73.64,14.56 144.06,25.48 218.53,33.87 316.18,35.61 647.84,33.7 962.58,-14.69 118.85,-18.27 401.84,-89.64 417.83,-91.12 39.11,295.59 48.71,531.14 29.46,838.44 -145.65,32.57 -262.57,64.4 -423.18,82 -305.21,33.46 -633.06,38.54 -934.99,-8.45l-409.31 -64.42c-24.63,-6.89 -10.66,-2.53 -21.64,-8.14l-53.88 -813.75zm678.27 -31.73l320.35 -4.13 8.23 83.03 -332.28 -12.39 3.7 -66.51zm665.79 -17.5l4.98 57.09c-44.75,27.18 -262.36,31.23 -307.54,31.29l-6.48 -75.28 309.04 -13.1zm-1021.08 -14.13c114.82,7.65 150.5,27.35 323.32,27.35l0 70.81c-83.35,-0.52 -277.33,-20.99 -352.6,-41.85 -6.27,-41.67 -12.25,-59.08 29.28,-56.31zm-17.25 1134.84c-60.31,-8.14 -118.81,-20.5 -176.25,-34.04 -84.14,-19.84 -125.58,-17.56 -142.23,-60.86 -96.5,-250.96 -69.11,-853.72 -55.59,-1116.11 59.41,12.44 118.02,29.67 180.7,42.78 155.13,32.45 144.48,19.4 144.48,80.74 -103.74,-1.59 -166.78,-32.92 -281.56,-24.95 -28.02,119.62 -0.31,771.97 41.05,878.27 63.73,43.89 180.36,50.61 262.46,72.53 1.22,2.23 2.27,5.25 2.9,7.07l24.04 154.57zm-348.29 -88.31c-82.44,0.62 -103.18,-26.05 -117.78,-70.6 -102.38,-312.46 -141.12,-830.85 -74.3,-1124.65l137 58.33c-32.93,434.78 -52.08,724.69 55.08,1136.92zm1416.85 -1045.99c75.54,-8.92 162.69,-27.1 238.4,-42.75 172.97,-35.76 178.53,-69.59 183.5,11.82 -37.54,31 -349.69,108.51 -414.2,98.29l-7.7 -67.36zm445.89 -90.2c30.55,-27.11 109.77,-68.51 151.94,-77.05 73.65,119.19 121.98,503.54 121.98,669.78 0,172.57 1.09,238.72 -22.9,420.3 -7.72,58.36 -19.17,67.09 -62.77,90.2 -34.17,18.1 -73.03,34.87 -112.84,41.41l15.73 -619.65c0,-318.08 -93.06,-473.39 -91.14,-524.99zm322.77 628.61c0.75,14.3 2.96,24.16 -1.8,40.06 -10.58,35.3 0.7,7.54 -14.51,19.2l-3.61 -101.6c8.92,-140.75 -31.42,-417.77 -75.02,-560.58 -38.5,-126.1 -69.58,-119.36 -16.62,-143.9 8.23,7.64 2.46,-4.46 14.31,19.36 1.47,2.96 5.42,14.78 6.66,18.63 90.68,281.24 72.93,435.94 90.59,708.83zm-1439.21 -1186.12l266.66 15.8c7.18,139.24 28.52,301.92 19.53,442.01l-306.41 -10.44 20.22 -447.37zm594.94 581.97l-40.93 9.5c-80.19,-8.12 -256.44,15.09 -352.42,17.18 -122.83,2.67 -244.45,-0.08 -364.21,-9.13 -359.33,-27.13 -349.88,-58.43 -629.83,-115.77 20.24,-34.68 33.04,-26.59 15.94,-76.41l-56.9 -1.14 -6.35 58.78 -79.95 -34.98 11.06 -61.39 4.11 -19.79c36.6,-10.44 6.68,-3.6 18.97,3.39 223.4,131.19 757.31,172 1044.81,179.33 136.97,3.49 267.86,-10.61 398.36,-9.32 -18.04,21.68 -37.96,43.62 -1.67,52.07l33.72 -3.03c25.82,-30.38 1.65,-42.55 -24.78,-53.43 133.48,-8.27 282.7,-38.24 404.22,-73.43 60.04,-17.38 123.05,-38.3 173.03,-64.1 43.68,-22.55 111.39,-71.11 153.63,-83.63l16.08 27.65c-54.03,144.94 -557.88,253.27 -716.89,257.65zm-78.1 -576.39c22.9,121.39 87.56,313.67 91.3,432 -57.38,5.65 -239,23.63 -280.87,13.19l-31.82 -437.08 221.39 -8.11zm74.51 -7.06l236.77 -29.67c35.4,47.22 168.16,325.83 177.42,385.44 -58.57,31.63 -284.66,72.84 -365.22,77.32 -14.7,-203.9 -80.14,-349.73 -81.45,-408.55l-10.15 -24.85 42.63 0.31zm-940.75 -37.81l305.45 36.56c0.91,2.37 -4.17,406.57 -8.04,439.67 -125.46,10.49 -230.49,-17.08 -350.02,-24.16l52.61 -452.07zm-379.04 383.08c3.85,-46.73 135.67,-390.91 159.44,-419.65l177.7 26.37c3.54,44.49 -44.64,300.85 -44.77,453.04 -73.93,0.3 -214.5,-43.52 -292.37,-59.76zm1591.14 -387.48c16.76,-12.15 96.78,-43.13 117.82,-50.65 39.8,37.03 206.05,283.6 220.53,347.02 -38.1,37.74 -87.14,68.83 -152.95,83.29 -57.77,-133.45 -119.49,-258.48 -185.4,-379.66zm-1743.46 330.84c46.62,-153.22 126.73,-281.4 193.39,-410.86l84.3 34.94c-15.76,58.16 -60.88,144.21 -85.57,204.67 -22,53.86 -52.12,170.91 -74.97,212.59 -44.27,-4.09 -81.96,-25.81 -117.15,-41.34zm2109.44 -146.98c23.42,52.07 52.52,71.42 1.83,97.11 -59.3,-164.15 -190.24,-284.99 -225.71,-358.71 26.06,-10.05 21.29,-13.46 43.45,-27.09 9.02,6.94 5.34,3.67 14.58,13.27l113.84 174.94c20.04,37.41 35.16,63.01 52.01,100.48zm-1077.89 -334.28c10.63,18.43 11.01,20.89 3.39,44.92 -12.32,-15.39 -9.18,4.6 -12.95,-22.47 -5.3,-38.15 4.94,-17.49 9.56,-22.45zm-49.58 18.26l5.91 12.92c6.07,21.08 1.47,-0.38 -0.91,15.39 -26.89,2.59 -12.61,5.59 -32.61,-6.48l-42.88 1.79 -0.05 -45.41 70.9 0 -0.36 21.79zm-146.58 -3.02c-0.18,-32.31 7.85,-22.27 28.36,-25.7l0 52.34c-23.55,-6.07 -28.2,1.59 -28.36,-26.64zm-55.63 0.16c0.07,-40.89 13.8,-25.3 18.16,-29.3 4.2,26.34 11.54,27.82 -3.44,50.84 -5.17,-3.7 -14.75,-1.68 -14.72,-21.54zm412.65 92.68c161.26,0 468.05,-11.48 592.47,-76.28 80.57,-41.95 49.21,-59.89 76.24,-33.03 15.15,15.05 9.69,9.8 0.67,23.71 -42.47,65.46 -299.67,103.1 -382.09,110.05 -324.27,27.33 -621.43,2.83 -939.01,-41.11 -97.06,-13.43 -237.08,-14.05 -244.36,-83.57 67.76,10.66 168.1,49.58 324.39,71.4 231.72,32.36 349.46,28.83 571.69,28.83zm-615.54 -135.82c36.2,-0.9 71.43,5.03 107.23,8.69 63.64,6.5 69.58,-6.12 69.58,50.93 -68.04,-0.99 -154.47,-9.82 -215.77,-28.21 -15.28,-13 -16.13,8.14 -11.92,-37.1 28.51,-8.04 -0.47,-7.54 31.2,-3.39 41.43,5.43 0.89,-1.16 19.68,9.08zm-89.33 15.14c-39.59,-7.02 -22.6,-1.12 -36.25,-23.27 51.91,-22.95 36.28,21.95 36.25,23.27zm-81.65 -31.73c-17.62,7.31 -16.65,4.97 -34.97,-7.82l29.69 3.84c1.09,-1.94 3.49,2.69 5.28,3.98zm905.06 50.8c82.02,0 180.34,-11.83 259.03,-28.77 173.5,-37.36 195.26,-89.62 202.46,-46.88 18.53,109.97 -541.46,124.06 -687.43,107.59 9.24,-68.3 76.24,-31.94 225.94,-31.94zm-953.29 -122.03c215.67,-48.29 452.58,-43.13 681.13,-49.3 259.21,-7 421.13,-31.41 677.9,20.3 -179.68,144.14 -1103.63,78.5 -1359.03,29zm-88.11 -4.98l8.46 84.67c-74.86,17.45 -114.21,61.39 -154.9,116.04 -304.44,408.88 -368.3,1087.92 -251.5,1552.08 36.97,146.92 79.06,275.98 138.25,403.66 58.84,126.9 227.18,402.12 347.15,474.16 120.12,72.13 -85.13,78.63 392.59,157.76 314.58,52.11 728.38,19.15 1023.7,-48.19 48.23,-10.99 210.35,-51.25 242.86,-70.42l137.95 -183.8c16.8,-30.42 33.5,-75.12 45.94,-106.47l84.61 -237.15c49.5,-131.89 110.02,-546.8 110.02,-694.39 0,-421.08 -92.09,-820.8 -266.01,-1114.18 -52.64,-88.79 -89.39,-142.5 -158.18,-214.37l-8.47 -8.47c-80.3,-77.13 -93.8,-59.85 -101.47,-110.2 -2.95,-19.37 -1.17,-23.73 -5.95,-36.39 -54.08,-143.24 -1278.84,-90.88 -1464.66,-47.16 -33.2,7.81 -120.39,45.22 -120.39,82.82z"/>
   <path class="fil1" d="M2495.89 2022.15c37.42,52.54 7.23,110.31 -43.15,85.44 -41.21,-20.35 -39.95,-102.18 43.15,-85.44zm-1658.32 86.49l-28.89 -29.99c-9.46,-33.5 -8.07,-16.35 -1.27,-49.22 70.95,-45.28 122,8.25 77.8,82.1l-47.64 -2.89zm915.02 -258.8c0,-89.67 -15.01,-173.04 86.37,-137.18 10.82,30.89 8.15,233.92 10.37,289.6 2.36,57.97 -50.27,78.48 -80.51,43.24 -20.27,-23.63 -16.23,-151.71 -16.23,-195.66zm-321.63 -142.99c65.32,-20.19 151.02,-12.1 204.56,22.89 91.33,59.69 40.8,118.85 17.17,152.98 64.03,36.76 78.84,116.57 -11.77,151.56 -57.41,22.17 -188.97,45.38 -229.15,3.31 -26.85,-41.45 -1.22,-286.98 19.19,-330.74zm613.16 163.29c55.7,-81.21 110.2,-206.97 164.37,-203.13 46,3.26 43.43,47.71 49.88,92.02 7.27,49.87 45.63,227.32 16.09,257.26 -39.97,40.5 -76.89,1.6 -82.7,-47.67 -4.76,-40.3 -3.24,-91.29 -17.9,-123.14 -15.92,23.37 -28.99,45.26 -43.86,68.46 -15.9,24.84 -29.86,39.78 -48.57,61.56 -27.14,31.6 -109.65,141.25 -150.47,60.97l-14.22 -80.28c-25.19,-174.4 -79.59,-262.53 41.67,-251.12 28.48,44.84 37.36,142.42 44.96,208.37l40.75 -43.3zm-182.83 -246.69c-48.51,47.83 -117.59,31.96 -101.38,-34.85 10.18,-41.94 104.43,-65.48 101.38,34.85zm-514.52 268.16c27.02,71.84 -25.23,89.74 -84.6,111.26 -52.73,19.11 -120.52,22.7 -171.33,0.76 -217.5,-93.92 -34.64,-439.97 156.86,-471.66 42.92,-7.1 53.42,3.16 89.94,3.04 9.55,-0.03 112.8,-33.45 75.25,110.24 -10.87,41.6 -31.21,37.2 -70.3,35.66 -19.45,-31.28 -20.64,-55.58 -55.99,-59.4 -124.1,-13.42 -309.87,301.69 -118.19,305.94 80.45,1.78 100.87,-64.57 178.36,-35.84zm792.39 -388.65c187.53,-19.4 -65.79,236.17 -211.03,112.02 -63.18,-54.01 -17.59,-115.98 28.4,-88.67 28.25,16.78 24.64,82.68 124.41,42.31 42.59,-17.24 35.61,-37.29 58.22,-65.66zm-1374.4 -68.07l5.99 -25.06 25.07 -6.07 30.74 0.79c62.95,95.82 -63.6,120.74 -61.8,30.34zm1683.46 -75.69c64.27,-28.54 68.72,84.2 20.2,97.91 -48.8,13.78 -81.62,-70.63 -20.2,-97.91zm-1736.42 -33.74l53.88 813.75c10.98,5.61 -2.99,1.25 21.64,8.14l409.31 64.42c301.93,46.99 629.78,41.91 934.99,8.45 160.61,-17.6 277.53,-49.43 423.18,-82 19.25,-307.3 9.65,-542.85 -29.46,-838.44 -15.99,1.48 -298.98,72.85 -417.83,91.12 -314.74,48.39 -646.4,50.3 -962.58,14.69 -74.47,-8.39 -144.89,-19.31 -218.53,-33.87 -66.05,-13.06 -154.86,-41.42 -214.6,-46.26z"/>
   <path class="fil2" d="M2531.98 1172.44c-1.92,51.6 91.14,206.91 91.14,524.99l-15.73 619.65c39.81,-6.54 78.67,-23.31 112.84,-41.41 43.6,-23.11 55.05,-31.84 62.77,-90.2 23.99,-181.58 22.9,-247.73 22.9,-420.3 0,-166.24 -48.33,-550.59 -121.98,-669.78 -42.17,8.54 -121.39,49.94 -151.94,77.05z"/>
   <path class="fil2" d="M669.24 2308.63c-107.16,-412.23 -88.01,-702.14 -55.08,-1136.92l-137 -58.33c-66.82,293.8 -28.08,812.19 74.3,1124.65 14.6,44.55 35.34,71.22 117.78,70.6z"/>
   <path class="fil2" d="M600.72 2358.6c30.39,113.18 48.1,102.29 194.58,135.3 90.86,20.47 184.3,38.33 279.18,51.7 444.66,62.64 1054.11,66.47 1485.23,-74.66 90.38,-29.59 182.19,-40.16 193.48,-133.42 -58.88,10.12 -169.29,58.87 -239.82,78.42 -255.65,70.85 -561.01,103.09 -828.51,102.85 -466.34,-0.42 -657.83,-32.82 -1084.14,-160.19z"/>
   <path class="fil2" d="M1013.53 1027.71c119.53,7.08 224.56,34.65 350.02,24.16 3.87,-33.1 8.95,-437.3 8.04,-439.67l-305.45 -36.56 -52.61 452.07z"/>
   <path class="fil2" d="M2006.89 613.45c-6.75,3.51 0.82,2.18 -17.74,6.6 -2.57,0.61 -11.71,0.47 -16.07,0.43l1.33 17.51c1.31,58.82 66.75,204.65 81.45,408.55 80.56,-4.48 306.65,-45.69 365.22,-77.32 -9.26,-59.61 -142.02,-338.22 -177.42,-385.44l-236.77 29.67z"/>
   <path class="fil2" d="M1395.32 1062.3l306.41 10.44c8.99,-140.09 -12.35,-302.77 -19.53,-442.01l-266.66 -15.8 -20.22 447.37z"/>
   <path class="fil2" d="M1017.53 2396.94l-24.04 -154.57c-0.63,-1.82 -1.68,-4.84 -2.9,-7.07 -82.1,-21.92 -198.73,-28.64 -262.46,-72.53 -41.36,-106.3 -69.07,-758.65 -41.05,-878.27 114.78,-7.97 177.82,23.36 281.56,24.95 0,-61.34 10.65,-48.29 -144.48,-80.74 -62.68,-13.11 -121.29,-30.34 -180.7,-42.78 -13.52,262.39 -40.91,865.15 55.59,1116.11 16.65,43.3 58.09,41.02 142.23,60.86 57.44,13.54 115.94,25.9 176.25,34.04z"/>
   <path class="fil2" d="M1710.99 628.62l31.82 437.08c41.87,10.44 223.49,-7.54 280.87,-13.19 -3.74,-118.33 -68.4,-310.61 -91.3,-432l-221.39 8.11z"/>
   <path class="fil2" d="M687.1 958.72c77.87,16.24 218.44,60.06 292.37,59.76 0.13,-152.19 48.31,-408.55 44.77,-453.04l-177.7 -26.37c-23.77,28.74 -155.59,372.92 -159.44,419.65z"/>
   <path class="fil2" d="M1748.37 344.54c-115.35,8.98 -164.52,2.28 -279.13,-3.46 6.5,-3.66 -4.05,-2.97 20.5,-9.53l85.01 -4.37c41.91,0.02 84.51,1.81 126.05,-1.75l65.47 1.3 -17.9 17.81zm-855.93 -39.28c255.4,49.5 1179.35,115.14 1359.03,-29 -256.77,-51.71 -418.69,-27.3 -677.9,-20.3 -228.55,6.17 -465.46,1.01 -681.13,49.3z"/>
   <path class="fil2" d="M1368.91 1158.18c-1.56,24.89 4.3,14.77 -15.93,27.4 -17.66,-20.14 -21.44,-27.07 15.93,-27.4zm-157.69 38.12l-45.63 -2.04c-10.85,-73.3 84.97,-61.25 45.63,2.04zm-465.3 -100.07c-29.08,27.33 -63.54,14.7 -48.91,-22.22 8.75,-22.06 49,-29.3 48.91,22.22zm-239.03 -112.69l-11.06 61.39 79.95 34.98 6.35 -58.78 56.9 1.14c17.1,49.82 4.3,41.73 -15.94,76.41 279.95,57.34 270.5,88.64 629.83,115.77 119.76,9.05 241.38,11.8 364.21,9.13 95.98,-2.09 272.23,-25.3 352.42,-17.18l1.92 -17.18c-36.29,-8.45 -16.37,-30.39 1.67,-52.07 -130.5,-1.29 -261.39,12.81 -398.36,9.32 -287.5,-7.33 -821.41,-48.14 -1044.81,-179.33 -2.17,1.53 -5.03,3.34 -6.61,4.43 -1.49,1.03 -4.69,3.23 -6.15,4.25 -1.65,1.15 -8.14,5.92 -10.32,7.72z"/>
   <path class="fil2" d="M2530.4 2559.37c-7.25,-11.8 8.49,-11.9 -15.92,-6.26 -51.11,5.92 -122.93,30.31 -178.54,41.2 -50.82,9.95 -135.43,16.18 -180.43,31.06 -2.2,88.89 -20.52,185.7 -10.45,274.55l335.66 -67.12c6.12,-101.73 42.31,-184.06 49.68,-273.43z"/>
   <path class="fil0" d="M2003.37 1913.44c-7.6,-65.95 -16.48,-163.53 -44.96,-208.37 -121.26,-11.41 -66.86,76.72 -41.67,251.12l14.22 80.28c40.82,80.28 123.33,-29.37 150.47,-60.97 18.71,-21.78 32.67,-36.72 48.57,-61.56 14.87,-23.2 27.94,-45.09 43.86,-68.46 14.66,31.85 13.14,82.84 17.9,123.14 5.81,49.27 42.73,88.17 82.7,47.67 29.54,-29.94 -8.82,-207.39 -16.09,-257.26 -6.45,-44.31 -3.88,-88.76 -49.88,-92.02 -54.17,-3.84 -108.67,121.92 -164.37,203.13l-40.75 43.3z"/>
   <path class="fil0" d="M1346.77 1891.61c-77.49,-28.73 -97.91,37.62 -178.36,35.84 -191.68,-4.25 -5.91,-319.36 118.19,-305.94 35.35,3.82 36.54,28.12 55.99,59.4 39.09,1.54 59.43,5.94 70.3,-35.66 37.55,-143.69 -65.7,-110.27 -75.25,-110.24 -36.52,0.12 -47.02,-10.14 -89.94,-3.04 -191.5,31.69 -374.36,377.74 -156.86,471.66 50.81,21.94 118.6,18.35 171.33,-0.76 59.37,-21.52 111.62,-39.42 84.6,-111.26z"/>
   <polygon class="fil2" points="1480.57,2944.01 1768.93,2937.12 1762.59,2651.57 1433.81,2646.32 "/>
   <path class="fil2" d="M1810.57 2937.89l272.22 -26.16c5.81,-9.69 0.75,5.01 8.42,-19.54 0.82,-2.62 2.78,-10.66 3.38,-13.54l19.49 -245.96 -316.25 18.71 12.74 286.49z"/>
   <path class="fil0" d="M1491.72 1977.33l3.61 -71.68c51.98,-17.91 106.13,10.35 112.67,54.27 -30.87,21.04 -76.97,21.47 -116.28,17.41zm12.53 -135.11l1.2 -67.02c50.5,3.55 66.54,2.66 91.7,33.28 -15.58,37.4 -46.47,36.89 -92.9,33.74zm-73.29 -135.37c-20.41,43.76 -46.04,289.29 -19.19,330.74 40.18,42.07 171.74,18.86 229.15,-3.31 90.61,-34.99 75.8,-114.8 11.77,-151.56 23.63,-34.13 74.16,-93.29 -17.17,-152.98 -53.54,-34.99 -139.24,-43.08 -204.56,-22.89z"/>
   <path class="fil2" d="M1379.3 2933.23l54.17 4.48 -2.84 -31.01 -32.26 -259.09 -299.45 -26.52c9.82,67.52 69.16,246.43 96.46,300.91l183.92 11.23z"/>
   <path class="fil2" d="M2278.24 571.24c65.91,121.18 127.63,246.21 185.4,379.66 65.81,-14.46 114.85,-45.55 152.95,-83.29 -14.48,-63.42 -180.73,-309.99 -220.53,-347.02 -21.04,7.52 -101.06,38.5 -117.82,50.65z"/>
   <path class="fil2" d="M2173.32 2280.59l-24.64 17.96 2.08 44 0.59 80.45c151.94,-24.08 229.29,-35.01 373.53,-79.88 32.15,-10 29.82,-3.41 43.96,-27.56 0,-48.31 7.92,-85.52 -6.32,-132.23 -96.64,39.06 -265.88,96.5 -389.2,97.26z"/>
   <path class="fil2" d="M534.78 902.08c35.19,15.53 72.88,37.25 117.15,41.34 22.85,-41.68 52.97,-158.73 74.97,-212.59 24.69,-60.46 69.81,-146.51 85.57,-204.67l-84.3 -34.94c-66.66,129.46 -146.77,257.64 -193.39,410.86z"/>
   <path class="fil2" d="M1727.19 528.9c-222.23,0 -339.97,3.53 -571.69,-28.83 -156.29,-21.82 -256.63,-60.74 -324.39,-71.4 7.28,69.52 147.3,70.14 244.36,83.57 317.58,43.94 614.74,68.44 939.01,41.11 82.42,-6.95 339.62,-44.59 382.09,-110.05 9.02,-13.91 14.48,-8.66 -0.67,-23.71 -27.03,-26.86 4.33,-8.92 -76.24,33.03 -124.42,64.8 -431.21,76.28 -592.47,76.28z"/>
   <path class="fil2" d="M1062.93 2403.72l314.15 41.13 -16.53 -158.44 -327.45 -40.71c1.91,42.85 13.22,122.37 29.83,158.02z"/>
   <path class="fil2" d="M2005.19 1186.19l5.29 10.71c159.01,-4.38 662.86,-112.71 716.89,-257.65l-16.08 -27.65c-42.24,12.52 -109.95,61.08 -153.63,83.63 -49.98,25.8 -112.99,46.72 -173.03,64.1 -121.52,35.19 -270.74,65.16 -404.22,73.43 26.43,10.88 50.6,23.05 24.78,53.43z"/>
   <path class="fil2" d="M1745.81 2362.37c-12.22,-17.29 -7.49,-17.1 -7.54,-44.36 -36.5,0 -103.89,7.66 -135.47,-12.02l-203.16 -13.01 10.13 144.21c59.07,21.76 262.44,15.39 337.8,15.39l-1.76 -90.21z"/>
   <path class="fil2" d="M2106.77 2354.15l1.4 -59.71 -53.3 3.84 -278.22 17.03 7.31 137.33 290.36 -19.75c44.03,-7.29 33.52,-28.56 32.45,-78.74z"/>
   <path class="fil2" d="M888.83 2587.53c-27.34,-1.01 -34.79,-11.06 -32.08,7.46 72.1,91.71 101.06,154.33 193.09,262.45 35.49,41.68 14.22,53.01 91.77,52.91 -7.5,-36.85 -70.18,-268.68 -83.52,-291.32l-169.26 -31.5z"/>
   <path class="fil0" d="M1752.59 1849.84c0,43.95 -4.04,172.03 16.23,195.66 30.24,35.24 82.87,14.73 80.51,-43.24 -2.22,-55.68 0.45,-258.71 -10.37,-289.6 -101.38,-35.86 -86.37,47.51 -86.37,137.18z"/>
   <path class="fil2" d="M2388.48 2943.03l-9.46 -8.21c-91.29,5.53 -223.74,39.07 -328.89,52.1 -116.55,14.45 -236.61,23.25 -356.8,25.56 -370.06,7.12 -375.3,-15.88 -698.84,-63.39 66.93,88.86 626.81,85.15 707.3,87.1 359.59,8.73 518.77,-82.68 686.69,-93.16z"/>
   <path class="fil2" d="M2520.12 2815.87c79.07,-10.41 108.67,-54.55 132.88,-125.01 19.94,-58.06 41.05,-134.86 56.32,-189.39 -17.96,4.33 -124.24,35.27 -137.07,42.71l-52.13 271.69z"/>
   <path class="fil2" d="M2086.09 1262.64l7.7 67.36c64.51,10.22 376.66,-67.29 414.2,-98.29 -4.97,-81.41 -10.53,-47.58 -183.5,-11.82 -75.71,15.65 -162.86,33.83 -238.4,42.75z"/>
   <path class="fil2" d="M1845.73 427.29c-149.7,0 -216.7,-36.36 -225.94,31.94 145.97,16.47 705.96,2.38 687.43,-107.59 -7.2,-42.74 -28.96,9.52 -202.46,46.88 -78.69,16.94 -177.01,28.77 -259.03,28.77z"/>
   <path class="fil0" d="M2139.16 1502.96c-22.61,28.37 -15.63,48.42 -58.22,65.66 -99.77,40.37 -96.16,-25.53 -124.41,-42.31 -45.99,-27.31 -91.58,34.66 -28.4,88.67 145.24,124.15 398.56,-131.42 211.03,-112.02z"/>
   <polygon class="fil2" points="1386.37,1360.24 1718.65,1372.63 1710.42,1289.6 1390.07,1293.73 "/>
   <path class="fil2" d="M691.52 2527.95c28.62,78.5 99.54,149.78 142.47,206.83 48.78,64.83 84.59,142.97 187.81,145.44 -55.65,-45.19 -108.79,-120.83 -151.25,-190.56 -23.61,-38.77 -39.6,-70.06 -63.12,-106.19 -23.1,-35.5 -53.84,-40.67 -115.91,-55.52z"/>
   <path class="fil2" d="M1005.5 1318.41c75.27,20.86 269.25,41.33 352.6,41.85l0 -70.81c-172.82,0 -208.5,-19.7 -323.32,-27.35 -41.53,-2.77 -35.55,14.64 -29.28,56.31z"/>
   <path class="fil2" d="M1746.82 1289.33l6.48 75.28c45.18,-0.06 262.79,-4.11 307.54,-31.29l-4.98 -57.09 -309.04 13.1z"/>
   <path class="fil2" d="M2420.34 493.5c35.47,73.72 166.41,194.56 225.71,358.71 50.69,-25.69 21.59,-45.04 -1.83,-97.11 -16.85,-37.47 -31.97,-63.07 -52.01,-100.48l-113.84 -174.94c-9.24,-9.6 -5.56,-6.33 -14.58,-13.27 -22.16,13.63 -17.39,17.04 -43.45,27.09z"/>
   <path class="fil2" d="M2834.83 1758.71l15.28 36.01c0.96,1.7 2.94,4.34 4.64,6.33 -17.66,-272.89 0.09,-427.59 -90.59,-708.83 -1.24,-3.85 -5.19,-15.67 -6.66,-18.63 -11.85,-23.82 -6.08,-11.72 -14.31,-19.36 -52.96,24.54 -21.88,17.8 16.62,143.9 43.6,142.81 83.94,419.83 75.02,560.58z"/>
   <path class="fil2" d="M1072.69 424.49c61.3,18.39 147.73,27.22 215.77,28.21 0,-57.05 -5.94,-44.43 -69.58,-50.93 -35.8,-3.66 -71.03,-9.59 -107.23,-8.69l-46.14 -3.38 7.18 34.79z"/>
   <path class="fil0" d="M1861.29 1623.45c3.05,-100.33 -91.2,-76.79 -101.38,-34.85 -16.21,66.81 52.87,82.68 101.38,34.85z"/>
   <path class="fil0" d="M808.68 2078.65l28.89 29.99 47.64 2.89c44.2,-73.85 -6.85,-127.38 -77.8,-82.1 -6.8,32.87 -8.19,15.72 1.27,49.22z"/>
   <path class="fil3" d="M1491.72 1977.33c39.31,4.06 85.41,3.63 116.28,-17.41 -6.54,-43.92 -60.69,-72.18 -112.67,-54.27l-3.61 71.68z"/>
   <path class="fil0" d="M2448.22 1359.2c-61.42,27.28 -28.6,111.69 20.2,97.91 48.52,-13.71 44.07,-126.45 -20.2,-97.91z"/>
   <path class="fil0" d="M2495.89 2022.15c-83.1,-16.74 -84.36,65.09 -43.15,85.44 50.38,24.87 80.57,-32.9 43.15,-85.44z"/>
   <path class="fil0" d="M764.76 1434.89c-1.8,90.4 124.75,65.48 61.8,-30.34l-30.74 -0.79c-18.03,15.68 -15.43,13.06 -31.06,31.13z"/>
   <path class="fil1" d="M1504.25 1842.22c46.43,3.15 77.32,3.66 92.9,-33.74 -25.16,-30.62 -41.2,-29.73 -91.7,-33.28l-1.2 67.02z"/>
   <path class="fil0" d="M1748.37 344.54l-47.57 -19.11c-41.54,3.56 -84.14,1.77 -126.05,1.75l-85.01 4.37c-24.55,6.56 -14,5.87 -20.5,9.53 114.61,5.74 163.78,12.44 279.13,3.46z"/>
   <polygon class="fil2" points="1489.14,460.91 1518.95,464.02 1516.75,439.08 1517.11,417.29 1446.21,417.29 1446.26,462.7 "/>
   <path class="fil0" d="M1211.22 1196.3c39.34,-63.29 -56.48,-75.34 -45.63,-2.04l45.63 2.04z"/>
   <path class="fil0" d="M745.92 1096.23c0.09,-51.52 -40.16,-44.28 -48.91,-22.22 -14.63,36.92 19.83,49.55 48.91,22.22z"/>
   <path class="fil4" d="M2394.94 2924.37l11.64 9.14c46.64,-3.39 78.92,-1.58 97.88,-33.16l-109.52 24.02z"/>
   <path class="fil5" d="M1745.81 2362.37l-2.86 -51.6 -140.15 -4.78c31.58,19.68 98.97,12.02 135.47,12.02 0.05,27.26 -4.68,27.07 7.54,44.36z"/>
   <path class="fil2" d="M1398.53 462.7l0 -52.34c-20.51,3.43 -28.54,-6.61 -28.36,25.7 0.16,28.23 4.81,20.57 28.36,26.64z"/>
   <path class="fil6" d="M2854.75 1801.05c-1.7,-1.99 -3.68,-4.63 -4.64,-6.33l-15.28 -36.01 3.61 101.6c15.21,-11.66 3.93,16.1 14.51,-19.2 4.76,-15.9 2.55,-25.76 1.8,-40.06z"/>
   <path class="fil4" d="M1329.26 457.76c14.98,-23.02 7.64,-24.5 3.44,-50.84 -4.36,4 -18.09,-11.59 -18.16,29.3 -0.03,19.86 9.55,17.84 14.72,21.54z"/>
   <path class="fil4" d="M986.07 384.95c13.65,22.15 -3.34,16.25 36.25,23.27 0.03,-1.32 15.66,-46.22 -36.25,-23.27z"/>
   <path class="fil7" d="M2106.77 2354.15c13.06,-21.19 10.65,-33.01 7.45,-61.56 -23.87,-7.89 -3.37,-8.63 -31.78,-5.16 -20.27,2.48 -23.86,8.87 -27.57,10.85l53.3 -3.84 -1.4 59.71z"/>
   <path class="fil8" d="M1569.72 465.74c7.62,-24.03 7.24,-26.49 -3.39,-44.92 -4.62,4.96 -14.86,-15.7 -9.56,22.45 3.77,27.07 0.63,7.08 12.95,22.47z"/>
   <path class="fil7" d="M1072.69 424.49l-7.18 -34.79 46.14 3.38c-18.79,-10.24 21.75,-3.65 -19.68,-9.08 -31.67,-4.15 -2.69,-4.65 -31.2,3.39 -4.21,45.24 -3.36,24.1 11.92,37.1z"/>
   <polygon class="fil6" points="1748.37,344.54 1766.27,326.73 1700.8,325.43 "/>
   <path class="fil9" d="M1352.98 1185.58c20.23,-12.63 14.37,-2.51 15.93,-27.4 -37.37,0.33 -33.59,7.26 -15.93,27.4z"/>
   <polygon class="fil10" points="1969.55,1206.4 2010.48,1196.9 2005.19,1186.19 1971.47,1189.22 "/>
   <path class="fil5" d="M1379.3 2933.23c10.31,5.46 3.11,5.35 25.67,9.43 16.52,2.98 20.7,1.54 38.05,1.37l-12.39 -37.33 2.84 31.01 -54.17 -4.48z"/>
   <path class="fil5" d="M2150.76 2342.55l-2.08 -44 24.64 -17.96 -31.06 7.36c-1.02,31.49 -1.86,33.09 8.5,54.6z"/>
   <path class="fil5" d="M856.75 2594.99c-2.71,-18.52 4.74,-8.47 32.08,-7.46 -21.75,-13.31 -17.48,-9.16 -48.03,-11.68 10.32,34.03 0.45,10.39 15.95,19.14z"/>
   <path class="fil11" d="M1974.41 637.99l-1.33 -17.51c4.36,0.04 13.5,0.18 16.07,-0.43 18.56,-4.42 10.99,-3.09 17.74,-6.6l-42.63 -0.31 10.15 24.85z"/>
   <path class="fil12" d="M764.76 1434.89c15.63,-18.07 13.03,-15.45 31.06,-31.13l-25.07 6.07 -5.99 25.06z"/>
   <path class="fil5" d="M506.89 983.54c2.18,-1.8 8.67,-6.57 10.32,-7.72 1.46,-1.02 4.66,-3.22 6.15,-4.25 1.58,-1.09 4.44,-2.9 6.61,-4.43 -12.29,-6.99 17.63,-13.83 -18.97,-3.39l-4.11 19.79z"/>
   <polygon class="fil6" points="2388.48,2943.03 2406.58,2933.51 2394.94,2924.37 2379.02,2934.82 "/>
   <path class="fil6" d="M1489.14 460.91c20,12.07 5.72,9.07 32.61,6.48 2.38,-15.77 6.98,5.69 0.91,-15.39l-5.91 -12.92 2.2 24.94 -29.81 -3.11z"/>
   <path class="fil4" d="M940.67 376.49c-1.79,-1.29 -4.19,-5.92 -5.28,-3.98l-29.69 -3.84c18.32,12.79 17.35,15.13 34.97,7.82z"/>
   <path class="fil6" d="M2530.4 2559.37l8.94 -17.53 -24.86 11.27c24.41,-5.64 8.67,-5.54 15.92,6.26z"/>
   <polygon class="fil13" points="837.57,2108.64 808.68,2078.65 "/>
  </g>
 </g>
</svg>
